<?xml version="1.0" encoding="UTF-8"?>
<svg version="1.1" xmlns="http://www.w3.org/2000/svg" width="2000" height="2000">
<path d="M0 0 C660 0 1320 0 2000 0 C2000 660 2000 1320 2000 2000 C1340 2000 680 2000 0 2000 C0 1340 0 680 0 0 Z " fill="#5165C0" transform="translate(0,0)"/>
<path d="M0 0 C0.9445253 0.00141495 1.8890506 0.0028299 2.86219788 0.00428772 C5.85738388 0.00985265 8.85249312 0.02239858 11.84765625 0.03515625 C13.88736871 0.04017579 15.92708234 0.0447379 17.96679688 0.04882812 C22.94796951 0.05895658 27.92897769 0.07853872 32.91015625 0.09765625 C32.91015625 9.99765625 32.91015625 19.89765625 32.91015625 30.09765625 C28.53636719 30.15373047 28.53636719 30.15373047 24.07421875 30.2109375 C21.22111913 30.25727148 18.36814456 30.3084618 15.51513672 30.36010742 C13.54646533 30.3931713 11.57770336 30.4212597 9.60888672 30.4440918 C6.76360811 30.47798133 3.91914586 30.53031096 1.07421875 30.5859375 C0.20713287 30.59232742 -0.659953 30.59871735 -1.55331421 30.6053009 C-11.29956608 30.83493443 -19.9979434 33.13239698 -27.08984375 40.09765625 C-37.96057131 53.00664523 -35.53673701 71.61066754 -36.08984375 87.09765625 C-13.64984375 87.09765625 8.79015625 87.09765625 31.91015625 87.09765625 C31.91015625 92.70765625 31.91015625 98.31765625 31.91015625 104.09765625 C34.05515625 102.59203125 36.20015625 101.08640625 38.41015625 99.53515625 C53.69773227 89.20148204 71.33679509 82.75815985 89.91015625 82.09765625 C91.19792969 82.03449219 92.48570312 81.97132813 93.8125 81.90625 C119.88247632 81.01541664 144.86052854 88.96548189 164.28515625 106.53515625 C184.47737305 125.53766236 191.63510314 148.72239069 196.91015625 175.09765625 C196.91015625 182.02765625 196.91015625 188.95765625 196.91015625 196.09765625 C141.80015625 196.09765625 86.69015625 196.09765625 29.91015625 196.09765625 C34.71611523 215.39157355 34.71611523 215.39157355 44.91015625 232.09765625 C45.61785156 233.04898437 45.61785156 233.04898437 46.33984375 234.01953125 C56.29020086 246.72450699 72.39722493 252.85214174 87.91015625 255.09765625 C106.67373387 256.94847109 126.36565199 252.85419012 141.40625 241.20703125 C147.93917419 235.97571267 147.93917419 235.97571267 152.77905273 229.30883789 C153.96866671 227.07034742 154.9176621 225.68582588 156.91015625 224.09765625 C161.36883517 223.21367402 165.69977887 223.43875666 170.22265625 223.66015625 C172.04893555 223.7075293 172.04893555 223.7075293 173.91210938 223.75585938 C176.9139106 223.83826176 179.91080278 223.95325822 182.91015625 224.09765625 C182.43449219 222.95490234 182.43449219 222.95490234 181.94921875 221.7890625 C179.20565196 214.68260566 179.91015625 207.74860091 179.91015625 200.09765625 C190.80015625 200.09765625 201.69015625 200.09765625 212.91015625 200.09765625 C213.57015625 204.71765625 214.23015625 209.33765625 214.91015625 214.09765625 C219.80827496 228.50388774 227.62874496 237.6142369 241.015625 244.75390625 C262.82506581 255.38503152 289.83863234 256.43936283 312.91015625 249.09765625 C323.36425899 245.24614471 332.77514595 238.86832622 337.97265625 228.78515625 C341.89852336 220.10912965 342.66515545 209.81612628 339.34765625 200.78515625 C332.22335761 185.77499601 318.30497856 178.69186638 303.34960938 172.9609375 C292.39089089 169.08283216 281.00570826 166.29545892 269.70703125 163.60546875 C241.38774117 156.86299735 207.63310399 146.48706641 191.19140625 120.3671875 C182.42421207 104.78822726 180.07837031 86.10794086 184.03515625 68.53515625 C187.06864234 58.58418787 192.07611217 49.89721649 198.91015625 42.09765625 C199.44253906 41.48277344 199.97492187 40.86789062 200.5234375 40.234375 C216.7296284 22.79047979 242.97259922 15.93462981 265.89941406 14.97216797 C296.04589818 14.05849902 323.91802443 18.50798054 347.453125 38.76953125 C360.53560419 51.16564825 368.72332764 68.24209447 370.91015625 86.09765625 C370.91015625 89.72765625 370.91015625 93.35765625 370.91015625 97.09765625 C360.02015625 97.09765625 349.13015625 97.09765625 337.91015625 97.09765625 C337.25015625 92.47765625 336.59015625 87.85765625 335.91015625 83.09765625 C330.77162885 68.96670589 322.43857028 59.77279227 308.8515625 53.37890625 C287.76580766 44.19414186 263.43745579 44.78806248 241.97265625 52.41015625 C231.79116678 56.59740284 223.25063703 63.5509548 218.47265625 73.66015625 C215.62428054 81.650405 215.31017888 91.29036814 218.66015625 99.16015625 C219.37773163 100.4906606 220.12520415 101.80575592 220.91015625 103.09765625 C221.77640625 104.67546875 221.77640625 104.67546875 222.66015625 106.28515625 C235.23065058 121.99827416 260.34906113 127.83486952 278.97265625 132.28515625 C304.81354099 138.51816895 333.54255672 146.22041823 353.91015625 164.09765625 C354.72871094 164.72929688 355.54726563 165.3609375 356.390625 166.01171875 C358.86390185 168.05936191 360.82182827 170.11197775 362.84765625 172.59765625 C363.47542969 173.35046875 364.10320313 174.10328125 364.75 174.87890625 C367.95764201 179.65846686 370.33593144 184.94920663 372.91015625 190.09765625 C373.24015625 156.10765625 373.57015625 122.11765625 373.91015625 87.09765625 C382.49015625 87.09765625 391.07015625 87.09765625 399.91015625 87.09765625 C401.93402945 97.21702223 403.07913254 105.88397812 402.91015625 116.09765625 C403.52890625 115.45828125 404.14765625 114.81890625 404.78515625 114.16015625 C405.82222019 113.13464734 406.86472822 112.11463726 407.91015625 111.09765625 C408.93302734 110.09798828 408.93302734 110.09798828 409.9765625 109.078125 C429.55341024 90.66234236 454.75084047 81.19750867 481.59228516 81.64672852 C507.95723181 82.59328873 532.05508781 92.20953866 550.90234375 111.09375 C552.66236003 113.0375902 554.30147845 115.02711961 555.91015625 117.09765625 C556.47089844 117.81050781 557.03164062 118.52335938 557.609375 119.2578125 C571.91905665 138.5196087 576.41707572 159.67884372 578.91015625 183.09765625 C579.68617187 182.50597656 580.4621875 181.91429687 581.26171875 181.3046875 C594.13735255 171.77696036 608.36555555 166.7323062 624.46899414 166.87060547 C625.83158859 166.87016739 625.83158859 166.87016739 627.22171021 166.86972046 C630.19217848 166.87110185 633.16238862 166.88660642 636.1328125 166.90234375 C638.20503096 166.90607812 640.27725119 166.90892309 642.34947205 166.91091919 C647.77949984 166.91852224 653.20941911 166.93814192 658.6394043 166.96032715 C664.18992648 166.98085754 669.74046635 166.98993624 675.29101562 167 C686.16410995 167.02139114 697.03712404 167.05548658 707.91015625 167.09765625 C707.63713226 163.73835131 707.34555684 160.38089808 707.05078125 157.0234375 C706.97424316 156.07891724 706.89770508 155.13439697 706.81884766 154.16125488 C705.69496647 141.62670621 700.96537947 131.53823882 691.66015625 122.91015625 C678.74663366 112.60174776 660.98851873 110.44699628 644.91015625 112.09765625 C631.24896634 114.50340038 617.57991922 120.58475035 609.453125 132.17578125 C607.37827254 135.40465827 605.62952868 138.6589114 603.91015625 142.09765625 C593.68015625 142.09765625 583.45015625 142.09765625 572.91015625 142.09765625 C574.03757782 133.0782837 574.03757782 133.0782837 575.40625 130.2734375 C575.71224121 129.64373047 576.01823242 129.01402344 576.33349609 128.36523438 C576.66816895 127.72005859 577.0028418 127.07488281 577.34765625 126.41015625 C577.87673584 125.37858398 577.87673584 125.37858398 578.41650391 124.32617188 C584.25605947 113.3227118 591.55888043 104.19987231 601.91015625 97.09765625 C603.04324219 96.30294922 603.04324219 96.30294922 604.19921875 95.4921875 C624.9900097 81.96774322 651.74866613 79.10366566 675.74462891 83.61450195 C697.26264298 88.20368806 716.29285735 99.27717775 728.6796875 117.734375 C733.11381483 124.87565376 735.80184675 131.97870039 737.91015625 140.09765625 C738.60238281 138.80794922 738.60238281 138.80794922 739.30859375 137.4921875 C752.17670212 113.98778331 770.64995345 94.93965219 796.76953125 86.8515625 C800.46653017 85.82168423 804.16231946 84.92176622 807.91015625 84.09765625 C808.88082031 83.87207031 809.85148437 83.64648438 810.8515625 83.4140625 C837.21718016 78.09693516 866.08146768 84.1093992 888.484375 98.73046875 C901.52788791 107.61162573 911.32922467 118.28702395 918.91015625 132.09765625 C921.60575007 128.78320645 924.13746007 125.40188123 926.59765625 121.91015625 C942.91310656 99.57744812 965.50194934 86.81324465 992.84765625 82.47265625 C1018.33377484 80.02634469 1047.10068475 83.97736478 1067.62792969 100.47851562 C1071.57943697 103.83010219 1075.27917161 107.40435349 1078.91015625 111.09765625 C1079.67199219 111.86078125 1080.43382812 112.62390625 1081.21875 113.41015625 C1094.08979209 127.05898061 1100.99661524 144.26741596 1104.84765625 162.34765625 C1105.16512817 163.77223145 1105.16512817 163.77223145 1105.48901367 165.22558594 C1107.54524965 175.8035151 1106.91015625 184.80883855 1106.91015625 196.09765625 C1051.80015625 196.09765625 996.69015625 196.09765625 939.91015625 196.09765625 C946.44181648 218.30530105 952.49561563 235.69665474 973.45727539 247.41479492 C990.53362161 256.42571344 1011.72286275 258.01656626 1030.1640625 252.41796875 C1040.93235154 248.62268022 1054.71485818 242.8936157 1060.37597656 232.3737793 C1064.7061535 224.78741199 1064.7061535 224.78741199 1068.75921631 223.51898193 C1074.12971766 222.71434787 1079.51212446 223.09563971 1084.91015625 223.41015625 C1086.55973247 223.46540134 1088.20948662 223.51557965 1089.859375 223.56054688 C1093.88073158 223.68112052 1097.89347119 223.87044661 1101.91015625 224.09765625 C1098.5125101 234.52956187 1093.00482556 242.8025581 1085.91015625 251.09765625 C1085.29398438 251.85949219 1084.6778125 252.62132812 1084.04296875 253.40625 C1068.99477951 271.42036866 1044.0811611 282.97392462 1020.91015625 285.09765625 C1013.24054457 285.47618476 1005.58189019 285.32453283 997.91015625 285.09765625 C996.74226563 285.07832031 995.574375 285.05898437 994.37109375 285.0390625 C970.66488441 283.96150753 948.70475231 270.70488062 932.52734375 254.15234375 C928.65781234 249.83400424 925.67024496 244.920822 922.6875 239.96875 C921.05997869 237.0947858 921.05997869 237.0947858 918.91015625 235.09765625 C918.34361328 236.07992188 918.34361328 236.07992188 917.765625 237.08203125 C912.97096501 245.03195929 907.38860794 251.51995251 900.91015625 258.09765625 C900.12898438 258.90332031 899.3478125 259.70898438 898.54296875 260.5390625 C878.25400358 280.17905403 850.52851548 285.54744235 823.3359375 285.13916016 C822.53542969 285.12546387 821.73492188 285.11176758 820.91015625 285.09765625 C819.77578125 285.08089844 818.64140625 285.06414062 817.47265625 285.046875 C793.36200798 283.8748296 771.02995194 270.45621069 754.74609375 253.359375 C748.52390842 246.47188472 744.04094964 238.35924303 739.91015625 230.09765625 C739.58015625 246.59765625 739.25015625 263.09765625 738.91015625 280.09765625 C730.33015625 280.09765625 721.75015625 280.09765625 712.91015625 280.09765625 C711.6212254 271.31681485 710.57733907 262.99127091 710.91015625 254.09765625 C710.21792969 254.71640625 710.21792969 254.71640625 709.51171875 255.34765625 C707.32646924 257.28242261 705.120044 259.19108643 702.91015625 261.09765625 C702.1625 261.75765625 701.41484375 262.41765625 700.64453125 263.09765625 C678.00099259 282.29217909 649.3254781 284.48209788 620.91015625 283.09765625 C603.34974108 281.61055803 586.60091702 273.80523356 574.46875 261.00390625 C569.33726855 254.72780864 566.05305443 247.87976016 563.91015625 240.09765625 C563.05357422 241.16886719 563.05357422 241.16886719 562.1796875 242.26171875 C561.43074219 243.19757813 560.68179688 244.1334375 559.91015625 245.09765625 C559.21277344 245.97164062 558.51539063 246.845625 557.796875 247.74609375 C541.52723733 267.91697668 519.96897402 281.70838774 493.76953125 284.8203125 C464.67611873 286.91103344 436.82266521 281.68484548 414.20703125 262.23828125 C411.71745112 259.91806031 409.31654716 257.50404716 406.91015625 255.09765625 C406.58015625 288.09765625 406.25015625 321.09765625 405.91015625 355.09765625 C395.35015625 355.09765625 384.79015625 355.09765625 373.91015625 355.09765625 C373.58015625 314.83765625 373.25015625 274.57765625 372.91015625 233.09765625 C371.26015625 237.05765625 369.61015625 241.01765625 367.91015625 245.09765625 C365.99086912 248.32554825 364.1778916 251.15376128 361.91015625 254.09765625 C361.28625 254.90976563 360.66234375 255.721875 360.01953125 256.55859375 C344.89866142 274.75964077 320.95845143 282.25578572 298.21484375 284.91894531 C267.08703093 287.33266978 234.79540361 283.70287806 209.41015625 264.09765625 C207.88911721 262.78837476 206.38837536 261.45509724 204.91015625 260.09765625 C204.13285156 259.40027344 203.35554687 258.70289063 202.5546875 257.984375 C197.57723765 253.290398 193.89126444 248.36997014 190.41796875 242.48046875 C189.0732518 240.35539792 187.76568287 238.77540787 185.91015625 237.09765625 C185.42289063 237.87367188 184.935625 238.6496875 184.43359375 239.44921875 C171.47840055 259.1882222 154.36594859 272.59072712 131.91015625 280.09765625 C131.09804688 280.43410156 130.2859375 280.77054688 129.44921875 281.1171875 C116.93967701 285.94779516 103.68928153 285.52162471 90.50439453 285.16699219 C88.47217017 285.11267714 86.43915459 285.08781677 84.40625 285.07421875 C64.72850551 284.34645011 45.49571567 274.80611759 30.91015625 262.09765625 C29.93949219 261.32421875 28.96882813 260.55078125 27.96875 259.75390625 C10.80994424 245.43907146 0.65983538 220.36392044 -1.85400391 198.72265625 C-4.43829104 169.95841682 0.31992915 142.47041777 17.91015625 119.09765625 C18.57015625 118.43765625 19.23015625 117.77765625 19.91015625 117.09765625 C1.43015625 116.76765625 -17.04984375 116.43765625 -36.08984375 116.09765625 C-36.08984375 170.21765625 -36.08984375 224.33765625 -36.08984375 280.09765625 C-46.31984375 280.09765625 -56.54984375 280.09765625 -67.08984375 280.09765625 C-67.08984375 225.97765625 -67.08984375 171.85765625 -67.08984375 116.09765625 C-79.29984375 116.09765625 -91.50984375 116.09765625 -104.08984375 116.09765625 C-100.12984375 124.01765625 -100.12984375 124.01765625 -96.08984375 132.09765625 C-91.45743025 148.31110349 -91.8159767 164.31407846 -91.88705587 181.06163096 C-91.89970448 184.55292515 -91.90074471 188.04422415 -91.90310669 191.53553772 C-91.90928051 198.12244054 -91.92563476 204.70927562 -91.94580567 211.29614884 C-91.96829361 218.80541315 -91.97919026 226.31468098 -91.98919654 233.82397068 C-92.0100055 249.24857825 -92.04662931 264.6730927 -92.08984375 280.09765625 C-100.66984375 280.09765625 -109.24984375 280.09765625 -118.08984375 280.09765625 C-121.51841518 261.95479911 -121.51841518 261.95479911 -121.08984375 254.09765625 C-121.74984375 254.09765625 -122.40984375 254.09765625 -123.08984375 254.09765625 C-123.321875 254.67 -123.55390625 255.24234375 -123.79296875 255.83203125 C-130.35218585 267.2909045 -147.13922993 274.37643575 -159.15234375 278.47265625 C-159.847229 278.71137451 -160.54211426 278.95009277 -161.25805664 279.19604492 C-172.70336069 282.84571228 -184.40114109 283.48816681 -196.33984375 283.47265625 C-197.01760864 283.47244476 -197.69537354 283.47223328 -198.39367676 283.47201538 C-213.52501676 283.42499457 -226.62758544 281.35796223 -240.08984375 274.09765625 C-241.38148438 273.41896484 -241.38148438 273.41896484 -242.69921875 272.7265625 C-251.81186592 267.63176431 -257.81545574 261.30786478 -262.86328125 252.19921875 C-264.04069604 249.97729077 -264.04069604 249.97729077 -266.08984375 248.09765625 C-266.49074219 248.64292969 -266.89164063 249.18820312 -267.3046875 249.75 C-275.51776236 260.64489523 -284.01558299 267.89736018 -296.08984375 274.09765625 C-297.00765625 274.58234375 -297.92546875 275.06703125 -298.87109375 275.56640625 C-314.93287409 283.5005387 -333.6105334 285.48685889 -351.27734375 285.41015625 C-351.95582367 285.4080011 -352.63430359 285.40584595 -353.33334351 285.40362549 C-382.84511058 285.25363252 -409.69672153 277.23575361 -431.625 256.7265625 C-446.2746873 241.42354438 -453.08984375 221.00496137 -453.08984375 200.09765625 C-442.19984375 200.09765625 -431.30984375 200.09765625 -420.08984375 200.09765625 C-419.42984375 204.05765625 -418.76984375 208.01765625 -418.08984375 212.09765625 C-414.50343633 225.3673637 -407.22650292 235.49870007 -395.52734375 242.78515625 C-373.91949689 254.68985678 -346.78533497 256.32688332 -323.08984375 250.09765625 C-311.02987704 246.36649353 -301.57728758 240.6923937 -295.28125 229.625 C-291.03997137 220.62792697 -290.3351273 210.21843882 -293.08203125 200.63671875 C-299.66232707 186.17493868 -312.99381194 179.49619861 -327.05224609 173.92333984 C-336.10833801 170.5376757 -345.2925877 168.14145304 -354.67233276 165.84735107 C-375.14031756 160.81836822 -394.50671667 155.23390738 -413.08984375 145.09765625 C-414.02183594 144.59492187 -414.95382812 144.0921875 -415.9140625 143.57421875 C-431.93827228 134.46783894 -442.5948355 121.85106053 -448.4765625 104.46875 C-452.94146621 87.20635156 -450.5288044 69.02222916 -442.09375 53.48828125 C-430.95259594 34.63736172 -411.63312051 23.76030184 -390.97265625 18.0625 C-361.19967614 10.4473471 -324.98020331 13.20177201 -298.08984375 28.84765625 C-279.33267867 41.34440679 -268.40591971 58.09612898 -262.75390625 79.78515625 C-261.87498729 85.49295937 -262.08984375 91.32257919 -262.08984375 97.09765625 C-272.64984375 97.09765625 -283.20984375 97.09765625 -294.08984375 97.09765625 C-294.46109375 94.70515625 -294.83234375 92.31265625 -295.21484375 89.84765625 C-297.2500118 78.29144115 -301.91540757 67.34996934 -311.59765625 60.26171875 C-317.17547577 56.57942564 -322.8676702 53.52973599 -329.08984375 51.09765625 C-330.01796875 50.72640625 -330.94609375 50.35515625 -331.90234375 49.97265625 C-352.29194482 44.37551086 -377.15779447 45.0459639 -396.08984375 55.09765625 C-405.10121228 60.34040124 -411.93721422 66.9154981 -415.08984375 77.09765625 C-416.54866269 86.55174071 -416.40080769 96.7223673 -410.94140625 104.82421875 C-410.33039063 105.57445312 -409.719375 106.3246875 -409.08984375 107.09765625 C-408.54070312 107.78601563 -407.9915625 108.474375 -407.42578125 109.18359375 C-392.17412848 125.06288655 -365.14007283 129.66737179 -344.80078125 135.01953125 C-314.36675087 143.07911212 -280.27667569 153.13524511 -263.328125 182.109375 C-261.87555991 184.75378837 -260.46112171 187.41035328 -259.08984375 190.09765625 C-258.59097656 189.54078125 -258.09210938 188.98390625 -257.578125 188.41015625 C-244.98616641 175.02696148 -229.14779772 167.87421514 -210.85891342 166.98976898 C-204.69046038 166.82140174 -198.52154107 166.8677661 -192.3515625 166.90234375 C-190.37474207 166.90608175 -188.39791976 166.908925 -186.4210968 166.91091919 C-181.26073946 166.9184937 -176.10049774 166.93808788 -170.94018555 166.96032715 C-165.65740522 166.98092 -160.37460591 166.98994943 -155.09179688 167 C-144.75776217 167.02134059 -134.42381264 167.05540033 -124.08984375 167.09765625 C-124.21301434 164.23379851 -124.34592862 161.37093932 -124.484375 158.5078125 C-124.51793091 157.70428345 -124.55148682 156.90075439 -124.58605957 156.07287598 C-125.22975533 143.24143819 -129.92225985 132.85285659 -139.15234375 123.91015625 C-150.17089019 114.57240503 -161.82865615 112.91070364 -175.71484375 112.84765625 C-176.82730469 112.82703125 -177.93976563 112.80640625 -179.0859375 112.78515625 C-193.59072351 112.71761359 -205.56329449 116.60211663 -216.90234375 125.72265625 C-222.18459689 130.81024819 -222.18459689 130.81024819 -227.08984375 142.09765625 C-237.64984375 142.09765625 -248.20984375 142.09765625 -259.08984375 142.09765625 C-254.89081827 123.20204159 -245.08965405 107.14599982 -228.71484375 96.28515625 C-204.52230675 81.98178925 -176.37715069 78.18420926 -149.08984375 85.09765625 C-133.86761252 89.40939783 -121.52537887 97.17416001 -110.08984375 108.09765625 C-109.75984375 101.16765625 -109.42984375 94.23765625 -109.08984375 87.09765625 C-95.22984375 87.09765625 -81.36984375 87.09765625 -67.08984375 87.09765625 C-67.17234375 82.00328125 -67.25484375 76.90890625 -67.33984375 71.66015625 C-67.44403741 50.50471776 -64.84098261 32.39052018 -49.5546875 16.3203125 C-45.43514237 12.60554043 -40.9108754 9.80806302 -36.08984375 7.09765625 C-35.14109375 6.52015625 -34.19234375 5.94265625 -33.21484375 5.34765625 C-22.63914028 1.11737486 -11.28900898 -0.06442171 0 0 Z " fill="#C0CCFE" transform="translate(656.08984375,844.90234375)"/>
<path d="M0 0 C10.26788706 8.05892026 20.91108933 18.14435734 24.1875 31.25 C29.4675 31.25 34.7475 31.25 40.1875 31.25 C39.94386719 33.4775 39.94386719 33.4775 39.6953125 35.75 C39.0795525 42.54729412 39.03644548 49.3282943 39.05712891 56.14746094 C39.06249187 58.24681822 39.05714886 60.34596164 39.05078125 62.4453125 C39.047398 70.10768755 39.35411247 77.63045691 40.1875 85.25 C35.2375 85.25 30.2875 85.25 25.1875 85.25 C24.836875 86.508125 24.48625 87.76625 24.125 89.0625 C18.94673011 104.47632206 6.66695601 116.97290836 -7.68798828 124.19335938 C-25.30723649 132.35650889 -45.15267048 134.01828755 -63.8125 128.25 C-73.94026605 124.37591184 -82.28837523 119.12375882 -89.8125 111.25 C-90.75996094 110.33154297 -90.75996094 110.33154297 -91.7265625 109.39453125 C-105.24286627 95.43165357 -109.3155357 74.52917254 -109.0234375 55.796875 C-108.32183458 35.44172851 -100.12686937 17.5292163 -85.42578125 3.38671875 C-77.61268764 -3.00156556 -68.65022222 -7.49021234 -58.8125 -9.75 C-58.15894531 -9.95238281 -57.50539063 -10.15476562 -56.83203125 -10.36328125 C-38.17639313 -15.66768899 -15.68832735 -10.96185815 0 0 Z " fill="#5165C0" transform="translate(1526.8125,968.75)"/>
<path d="M0 0 C14.7450727 12.38935103 22.33465568 29.18807702 25 48 C26.75463268 68.88706807 21.22879282 89.68977241 7.59765625 105.84765625 C-5.440984 119.76702697 -23.08398331 127.49173314 -42.15234375 128.1875 C-63.11649649 128.63618101 -82.13034239 123.13141321 -97.6796875 108.45703125 C-113.96584077 91.21125616 -117.63703873 71.58006971 -117.33984375 48.5546875 C-117.05475968 40.28133494 -115.35545013 33.57324241 -112 26 C-111.50371094 24.86691406 -111.00742188 23.73382812 -110.49609375 22.56640625 C-102.13626433 5.46400823 -87.86059429 -5.87881014 -70.0546875 -12.0703125 C-45.91964652 -19.41575975 -20.2651144 -14.88398233 0 0 Z " fill="#5165C0" transform="translate(1178,972)"/>
<path d="M0 0 C10.15398534 9.55031853 16.8424315 21.33422234 20.375 34.78515625 C20.375 36.43515625 20.375 38.08515625 20.375 39.78515625 C-23.845 39.78515625 -68.065 39.78515625 -113.625 39.78515625 C-113.625 25.32270524 -105.59390317 12.00473021 -95.9375 1.53515625 C-70.06989083 -22.71887886 -26.74819424 -22.56878889 0 0 Z " fill="#5165C0" transform="translate(800.625,973.21484375)"/>
<path d="M0 0 C0.82757812 0.61875 1.65515625 1.2375 2.5078125 1.875 C12.2385266 10.17203522 18.58880774 22.84663593 22 35 C22 36.98 22 38.96 22 41 C-22.22 41 -66.44 41 -112 41 C-110.22037926 24.98341332 -102.42669499 9.53753771 -89.7578125 -0.8359375 C-62.87343077 -20.50534139 -26.51350678 -20.5399264 0 0 Z " fill="#5165C0" transform="translate(1709,972)"/>
<path d="M0 0 C1.27437424 -0.00043808 1.27437424 -0.00043808 2.57449341 -0.00088501 C5.36104827 0.00049973 8.14733018 0.01602038 10.93383789 0.03173828 C12.87439325 0.03547146 14.8149505 0.03831699 16.75550842 0.04031372 C21.84690616 0.04792619 26.93818862 0.06755411 32.02954102 0.08972168 C37.23134807 0.11023162 42.43317387 0.11932643 47.63500977 0.12939453 C57.82972169 0.15080231 68.02434831 0.18490934 78.21899414 0.22705078 C78.07080955 1.8224291 77.91938473 3.41750667 77.76660156 5.01245117 C77.6406385 6.34488609 77.6406385 6.34488609 77.51213074 7.70423889 C75.74865787 22.88115769 67.42823644 36.91855097 55.67163086 46.48632812 C37.26518104 60.42351583 15.71476472 62.82920543 -6.78100586 61.22705078 C-16.61607282 59.65805476 -24.91352423 54.60179555 -31.59350586 47.35205078 C-36.93146295 39.72639779 -37.917146 32.39338534 -36.78100586 23.22705078 C-34.32188354 14.78050022 -28.44963648 8.49471182 -20.89038086 4.13720703 C-19.15600586 3.35205078 -19.15600586 3.35205078 -15.78100586 2.22705078 C-14.21575417 1.70427048 -14.21575417 1.70427048 -12.61888123 1.17092896 C-8.28004168 0.10384481 -4.44122418 -0.04050861 0 0 Z " fill="#5165C0" transform="translate(454.781005859375,1038.77294921875)"/>
<path d="M0 0 C1.25908676 -0.00021904 1.25908676 -0.00021904 2.54360962 -0.0004425 C5.31393023 0.00025333 8.08418334 0.00803032 10.85449219 0.01586914 C12.77691613 0.01773449 14.69934055 0.01915784 16.62176514 0.02015686 C21.67864294 0.02397282 26.73549196 0.03379527 31.7923584 0.04486084 C36.9536907 0.05509474 42.11502766 0.05965873 47.27636719 0.06469727 C57.40137982 0.07541834 67.52637111 0.09248374 77.65136719 0.11352539 C77.6744583 1.5302767 77.69078697 2.94713907 77.7043457 4.36401367 C77.71417984 5.15301056 77.72401398 5.94200745 77.73414612 6.75491333 C77.60747245 10.36421397 76.7094929 13.57458568 75.58886719 16.98852539 C75.25604736 18.02106445 75.25604736 18.02106445 74.91650391 19.07446289 C72.75674054 25.40465107 69.68851308 30.77435626 65.65136719 36.11352539 C65.11769531 36.82895508 64.58402344 37.54438477 64.03417969 38.28149414 C53.33412159 51.51577653 36.62322899 58.80209633 19.96582031 60.89819336 C7.2770617 62.07872976 -6.71790303 63.05552302 -18.34863281 57.11352539 C-19.08726563 56.75129883 -19.82589844 56.38907227 -20.58691406 56.01586914 C-26.99185372 52.45756933 -33.35367518 46.35009161 -35.90722656 39.34790039 C-37.60147915 30.77168373 -37.54134833 21.90675499 -33.02050781 14.26196289 C-24.94966065 3.89054714 -12.67484287 -0.05769888 0 0 Z " fill="#5165C0" transform="translate(1286.3486328125,1038.886474609375)"/>
<path d="M0 0 C6.21431702 3.51488519 10.55151891 8.03736923 12.83984375 14.90234375 C13.62313604 23.63754004 14.03013609 31.45910886 8.76171875 38.91015625 C4.35738031 43.47562903 -1.649063 46.65258062 -8.015625 47.10546875 C-16.60670772 47.22632806 -22.11799152 46.54529761 -29.41015625 41.77734375 C-32.86575621 38.16467107 -34.39348456 34.51380985 -36.16015625 29.90234375 C-36.49015625 29.24234375 -36.82015625 28.58234375 -37.16015625 27.90234375 C-38.14083358 19.83277033 -36.82963382 13.58472894 -32.16015625 6.90234375 C-24.02321203 -2.05014841 -11.28475782 -3.91967484 0 0 Z " fill="#C0CBFE" transform="translate(1783.16015625,1081.09765625)"/>
<path d="M0 0 C3.38728328 2.88915338 4.90375798 5.32701789 5.5625 9.75 C5.01468076 13.58473467 3.44867223 15.76268019 1.125 18.8125 C2.17204426 21.06767225 3.04014073 22.72764073 4.8125 24.5 C6.62026603 27.68511157 6.44137046 29.9814674 5.875 33.55078125 C4.76426163 36.90035163 3.1758864 38.69487357 0.3515625 40.76953125 C-4.03712673 42.82528568 -8.19033914 42.82224362 -12.875 41.8125 C-16.80672277 39.97079828 -19.16424343 37.71123542 -20.6953125 33.62109375 C-21.3162731 30.2848418 -21.49454943 27.91417153 -19.80078125 24.90234375 C-18.4375 23.25 -18.4375 23.25 -15.875 20.8125 C-16.16375 20.235 -16.4525 19.6575 -16.75 19.0625 C-17.306875 17.94875 -17.306875 17.94875 -17.875 16.8125 C-18.24625 16.19375 -18.6175 15.575 -19 14.9375 C-20.21354644 11.99031578 -20.25523807 9.9811506 -19.875 6.8125 C-15.50727693 -1.2989857 -8.55807045 -3.53485519 0 0 Z " fill="#05070D" transform="translate(888.875,1742.1875)"/>
<path d="M0 0 C0.99 0.33 1.98 0.66 3 1 C3.33 1.99 3.66 2.98 4 4 C4.804375 3.34 5.60875 2.68 6.4375 2 C9.81621718 -0.20212861 12.67158353 -0.7624388 16.68359375 -0.5859375 C21.96880137 0.75096156 25.66861275 4.89197019 28.5 9.375 C29.62671147 15.2902352 29.94157301 20.03196024 26.8125 25.375 C24.54101099 28.54246523 22.75926093 30.66337389 19 32 C15.58299578 32.44618733 12.38879227 32.67246347 9 32 C7.35 30.68 5.7 29.36 4 28 C3.67 33.28 3.34 38.56 3 44 C1.68 44 0.36 44 -1 44 C-1.02464513 37.8944529 -1.04283371 31.78893449 -1.05493164 25.68334961 C-1.05997288 23.60456844 -1.06680574 21.52579084 -1.07543945 19.44702148 C-1.08751422 16.46597414 -1.09323024 13.48497351 -1.09765625 10.50390625 C-1.10539818 9.10078941 -1.10539818 9.10078941 -1.11329651 7.66932678 C-1.11337204 6.80850998 -1.11344757 5.94769318 -1.11352539 5.06079102 C-1.115746 4.29912125 -1.11796661 3.53745148 -1.12025452 2.75270081 C-1 1 -1 1 0 0 Z " fill="#4F63BC" transform="translate(1165,1752)"/>
<path d="M0 0 C2.40085343 1.09861538 3.95748184 2.27998471 6 4 C6.66 2.68 7.32 1.36 8 0 C8.99 0.33 9.98 0.66 11 1 C11 10.9 11 20.8 11 31 C9.68 31 8.36 31 7 31 C6.67 30.01 6.34 29.02 6 28 C5.360625 28.639375 4.72125 29.27875 4.0625 29.9375 C0.09765052 32.60770475 -3.23546945 33.36973429 -8 33 C-11.375 31.25 -11.375 31.25 -14 29 C-14.5775 28.525625 -15.155 28.05125 -15.75 27.5625 C-19.17019202 23.28725998 -19.43474818 18.80171827 -19.31640625 13.5 C-18.67892783 8.4631335 -16.18166365 5.35543772 -12.875 1.5625 C-8.61688431 -0.75169331 -4.74194299 -0.78654238 0 0 Z " fill="#4F63BC" transform="translate(1222,1752)"/>
<path d="M0 0 C3.90638586 1.96584861 6.3691475 4.51830755 8.27734375 8.359375 C9.97993604 13.51782425 9.33472157 18.05982484 7.74609375 23.16015625 C5.36204828 27.35278794 2.78294449 29.26886832 -1.31640625 31.66015625 C-6.16602708 32.87256146 -10.76801502 32.72060829 -15.1328125 30.11328125 C-19.49697666 26.57821717 -21.59455566 23.38292593 -22.47265625 17.734375 C-22.69224553 11.41203364 -21.8101128 7.8141281 -17.76953125 2.90625 C-12.82061346 -1.62269082 -6.27120821 -1.9797576 0 0 Z " fill="#4F63BC" transform="translate(812.06640625,1752.65234375)"/>
<path d="M0 0 C2.40085343 1.09861538 3.95748184 2.27998471 6 4 C6.33 3.01 6.66 2.02 7 1 C7.99 1 8.98 1 10 1 C10 11.23 10 21.46 10 32 C9.01 32 8.02 32 7 32 C6.67 30.68 6.34 29.36 6 28 C5.360625 28.639375 4.72125 29.27875 4.0625 29.9375 C0.0891898 32.61340279 -3.2282807 33.35408518 -8 33 C-12.43092393 30.8263392 -15.20425664 28.03829597 -18 24 C-19.93795159 18.18614524 -20.02055692 12.07891224 -17.3125 6.5625 C-16.549375 5.716875 -15.78625 4.87125 -15 4 C-13.948125 2.824375 -13.948125 2.824375 -12.875 1.625 C-8.62895323 -0.77493948 -4.7677439 -0.79082195 0 0 Z " fill="#4F62BB" transform="translate(1038,1752)"/>
<path d="M0 0 C3.30774657 2.30773016 4.88228692 4.26457385 6.6875 7.875 C6.6875 10.185 6.6875 12.495 6.6875 14.875 C-1.5625 14.875 -9.8125 14.875 -18.3125 14.875 C-16.30446322 23.26568834 -16.30446322 23.26568834 -13.125 25.9375 C-9.44644117 27.16368628 -6.11477482 27.58188084 -2.3125 26.875 C1.01558239 24.99086085 1.01558239 24.99086085 3.6875 22.875 C4.3475 22.875 5.0075 22.875 5.6875 22.875 C5.35216224 26.00481912 4.68683599 26.87561159 2.3125 29.0625 C-1.92867327 31.99092916 -5.22975665 32.37494197 -10.3125 31.875 C-15.36257409 29.77394306 -19.27386517 26.79156543 -21.6875 21.82421875 C-23.39293755 16.5053854 -22.93220469 11.63666439 -20.6875 6.5625 C-15.9393178 -1.72613861 -8.52478825 -2.89521111 0 0 Z " fill="#05060D" transform="translate(1107.3125,1753.125)"/>
<path d="M0 0 C4.4125235 2.1661479 7.09058512 4.43862 9 9 C9 11.31 9 13.62 9 16 C0.75 16 -7.5 16 -16 16 C-13.58547582 23.78447715 -13.58547582 23.78447715 -8 28 C-2.7035448 28.93466857 0.53364497 27.97757002 5 25 C6.32 25 7.64 25 9 25 C7.26053493 29.1519895 5.28664461 30.46343723 1.28515625 32.30078125 C-4.04635571 33.93213277 -8.50680131 32.74659935 -13.375 30.3125 C-17.31760895 26.83924926 -18.68510919 24.23630786 -19.421875 19.00390625 C-19.7844845 12.97203671 -19.68449695 8.93533606 -15.625 4.25 C-10.79527435 -0.48034858 -6.6091151 -0.73096204 0 0 Z " fill="#04060B" transform="translate(1299,1752)"/>
<path d="M0 0 C0.99 0.33 1.98 0.66 3 1 C3.33 1.99 3.66 2.98 4 4 C4.804375 3.34 5.60875 2.68 6.4375 2 C9.81621718 -0.20212861 12.67158353 -0.7624388 16.68359375 -0.5859375 C21.96880137 0.75096156 25.66861275 4.89197019 28.5 9.375 C29.62671147 15.2902352 29.94157301 20.03196024 26.8125 25.375 C24.54101099 28.54246523 22.75926093 30.66337389 19 32 C15.58299578 32.44618733 12.38879227 32.67246347 9 32 C7.35 30.68 5.7 29.36 4 28 C3.67 33.28 3.34 38.56 3 44 C1.68 44 0.36 44 -1 44 C-1.02464513 37.8944529 -1.04283371 31.78893449 -1.05493164 25.68334961 C-1.05997288 23.60456844 -1.06680574 21.52579084 -1.07543945 19.44702148 C-1.08751422 16.46597414 -1.09323024 13.48497351 -1.09765625 10.50390625 C-1.10539818 9.10078941 -1.10539818 9.10078941 -1.11329651 7.66932678 C-1.11337204 6.80850998 -1.11344757 5.94769318 -1.11352539 5.06079102 C-1.115746 4.29912125 -1.11796661 3.53745148 -1.12025452 2.75270081 C-1 1 -1 1 0 0 Z M4 9 C2.15669279 12.68661442 2.64379062 16.96720094 3 21 C4.56789793 24.68456013 6.43711646 27.11958924 10 29 C14.25847709 29.55202481 16.46863726 29.27069422 20.3125 27.3125 C23.80376754 24.30838607 24.6760087 22.39664794 25.28515625 17.890625 C25.56369966 13.63391027 25.37819338 10.87042847 22.625 7.5 C18.7929603 3.85043838 16.39650578 3.60755069 11.26171875 3.640625 C7.67479071 4.21056866 6.13161106 6.20226049 4 9 Z " fill="#06080F" transform="translate(1165,1752)"/>
<path d="M0 0 C3.91075506 1.78656796 3.91075506 1.78656796 5.671875 3.2421875 C6.390625 5.3828125 6.390625 5.3828125 6.671875 7.2421875 C4.16590683 6.82452614 2.05564149 6.45305709 -0.18359375 5.22265625 C-2.72459043 4.06092553 -4.60568999 3.94228902 -7.390625 3.9296875 C-8.24785156 3.91292969 -9.10507813 3.89617187 -9.98828125 3.87890625 C-12.37166873 4.06869175 -12.37166873 4.06869175 -14.125 5.53125 C-16.05755189 8.27948938 -15.51189433 10.99559596 -15.328125 14.2421875 C-11.35794951 16.65881606 -7.57055215 18.57786167 -3.203125 20.1796875 C1.08533199 21.8859181 4.07274712 23.25685808 6.671875 27.2421875 C7.35993471 30.71688904 7.40116476 33.77236355 6.671875 37.2421875 C4.48164582 40.06643038 2.84170293 41.65727353 -0.328125 43.2421875 C-13.69344072 44.28742373 -13.69344072 44.28742373 -18.078125 41.4921875 C-20.12294801 39.44736449 -21.36087332 37.9504922 -22.328125 35.2421875 C-18.06061898 35.2421875 -16.71456726 36.21627376 -13.19140625 38.34375 C-9.2725021 40.23336835 -5.55462931 39.59651097 -1.515625 38.4296875 C0.9698885 37.3006585 0.9698885 37.3006585 2.671875 34.2421875 C2.98896271 31.22138615 2.98896271 31.22138615 1.671875 28.2421875 C-0.78603378 26.42682848 -3.50201001 25.37073677 -6.328125 24.2421875 C-17.68482603 19.52878544 -17.68482603 19.52878544 -20.328125 14.2421875 C-21.02715413 7.13539138 -21.02715413 7.13539138 -18.078125 3.3671875 C-12.3672571 -1.04575587 -7.00152408 -2.27901958 0 0 Z " fill="#05060D" transform="translate(1145.328125,1740.7578125)"/>
<path d="M0 0 C2.18361949 1.43799333 3.954754 2.63315789 5.5625 4.6875 C5.5625 5.3475 5.5625 6.0075 5.5625 6.6875 C3.05752425 6.27000404 0.94431173 5.89605262 -1.296875 4.671875 C-5.1747278 2.88862882 -9.26683668 3.12633102 -13.4375 3.6875 C-16.48310766 5.64539064 -17.21295847 6.68953765 -18 10.1875 C-17.19317702 13.77337991 -15.41970769 14.61415561 -12.4375 16.6875 C-10.29993698 17.57374209 -8.12992048 18.38480196 -5.9375 19.125 C2.97108892 22.46445972 2.97108892 22.46445972 5.5625 26.6875 C6.39955422 30.54367285 6.42935086 33.95379827 4.640625 37.53125 C1.84002367 41.24113747 -0.95625837 42.80882517 -5.4375 43.6875 C-12.29198611 44.46139359 -16.02158853 42.88292438 -21.4375 38.6875 C-22.0975 38.0275 -22.7575 37.3675 -23.4375 36.6875 C-23.4375 35.6975 -23.4375 34.7075 -23.4375 33.6875 C-20.48201536 34.14218994 -19.14084126 34.90999406 -16.6875 36.75 C-12.6999304 39.12720496 -9.967254 39.46942182 -5.4375 38.6875 C-2.03508176 37.3226132 -2.03508176 37.3226132 0.5625 35.6875 C0.5625 32.7175 0.5625 29.7475 0.5625 26.6875 C-2.14869433 25.577684 -4.86214397 24.53936838 -7.62890625 23.57421875 C-8.74136719 23.17847656 -9.85382812 22.78273438 -11 22.375 C-12.11503906 21.98699219 -13.23007812 21.59898438 -14.37890625 21.19921875 C-17.85828844 19.4795241 -19.39396586 17.96597563 -21.4375 14.6875 C-22.47496703 10.23249453 -22.01847786 6.66271283 -19.6875 2.75 C-13.98451245 -2.47773859 -7.08079606 -2.70357668 0 0 Z " fill="#05060D" transform="translate(1003.4375,1741.3125)"/>
<path d="M0 0 C2.40085343 1.09861538 3.95748184 2.27998471 6 4 C6.66 2.68 7.32 1.36 8 0 C8.99 0.33 9.98 0.66 11 1 C11 10.9 11 20.8 11 31 C9.68 31 8.36 31 7 31 C6.67 30.01 6.34 29.02 6 28 C5.360625 28.639375 4.72125 29.27875 4.0625 29.9375 C0.09765052 32.60770475 -3.23546945 33.36973429 -8 33 C-11.375 31.25 -11.375 31.25 -14 29 C-14.5775 28.525625 -15.155 28.05125 -15.75 27.5625 C-19.17019202 23.28725998 -19.43474818 18.80171827 -19.31640625 13.5 C-18.67892783 8.4631335 -16.18166365 5.35543772 -12.875 1.5625 C-8.61688431 -0.75169331 -4.74194299 -0.78654238 0 0 Z M-13 7 C-15.70958909 11.46844517 -15.66580712 15.91419623 -15 21 C-13.00342873 24.85544798 -11.60292362 26.59805092 -8 29 C-4.2930499 29.34323612 -1.70990373 29.29041516 1.75 27.875 C5.1602576 25.03311867 6.67121982 22.23730901 7.3203125 17.8203125 C7.59350833 12.41103512 6.67880737 9.18975284 3 5 C-2.44242015 0.87126748 -8.52195653 2.39401244 -13 7 Z " fill="#060810" transform="translate(1222,1752)"/>
<path d="M0 0 C2.40085343 1.09861538 3.95748184 2.27998471 6 4 C6.33 3.01 6.66 2.02 7 1 C7.99 1 8.98 1 10 1 C10 11.23 10 21.46 10 32 C9.01 32 8.02 32 7 32 C6.67 30.68 6.34 29.36 6 28 C5.360625 28.639375 4.72125 29.27875 4.0625 29.9375 C0.0891898 32.61340279 -3.2282807 33.35408518 -8 33 C-12.43092393 30.8263392 -15.20425664 28.03829597 -18 24 C-19.93795159 18.18614524 -20.02055692 12.07891224 -17.3125 6.5625 C-16.549375 5.716875 -15.78625 4.87125 -15 4 C-13.948125 2.824375 -13.948125 2.824375 -12.875 1.625 C-8.62895323 -0.77493948 -4.7677439 -0.79082195 0 0 Z M-14 8 C-16.09948946 12.19897892 -15.54696419 17.43998333 -15 22 C-13.38043957 25.23307772 -11.2763371 27.36183145 -8 29 C-3.01890741 29.37593152 0.05673864 29.1765161 4 26 C7.32390218 22.21762856 7.61972714 18.37705646 7.49609375 13.51171875 C6.66789838 9.31857211 4.19763024 6.70887329 1 4 C-5.37522241 0.81238879 -9.53713415 3.53713415 -14 8 Z " fill="#04050B" transform="translate(1038,1752)"/>
<path d="M0 0 C3.90638586 1.96584861 6.3691475 4.51830755 8.27734375 8.359375 C9.97993604 13.51782425 9.33472157 18.05982484 7.74609375 23.16015625 C5.36204828 27.35278794 2.78294449 29.26886832 -1.31640625 31.66015625 C-6.16602708 32.87256146 -10.76801502 32.72060829 -15.1328125 30.11328125 C-19.49697666 26.57821717 -21.59455566 23.38292593 -22.47265625 17.734375 C-22.69224553 11.41203364 -21.8101128 7.8141281 -17.76953125 2.90625 C-12.82061346 -1.62269082 -6.27120821 -1.9797576 0 0 Z M-16.06640625 6.34765625 C-18.81985903 10.76445764 -18.7274325 15.29837139 -18.06640625 20.34765625 C-16.06983498 24.20310423 -14.66932987 25.94570717 -11.06640625 28.34765625 C-6.25100001 28.82130277 -4.0152567 28.83965278 0.30859375 26.59765625 C3.42736025 23.92442782 4.69164956 22.05251882 5.26953125 17.98046875 C5.35859729 12.26242868 4.92746032 8.78528577 0.93359375 4.34765625 C-4.76857982 0.02186941 -11.03636695 2.13646056 -16.06640625 6.34765625 Z " fill="#05070E" transform="translate(812.06640625,1752.65234375)"/>
<path d="M0 0 C2.82424288 2.19022918 4.41508603 3.83017207 6 7 C6.08471364 8.81341842 6.10721083 10.62994161 6.09765625 12.4453125 C6.09443359 13.52167969 6.09121094 14.59804687 6.08789062 15.70703125 C6.07951172 16.83496094 6.07113281 17.96289062 6.0625 19.125 C6.05798828 20.26066406 6.05347656 21.39632813 6.04882812 22.56640625 C6.03701615 25.37765638 6.02054507 28.1888023 6 31 C4.68 31 3.36 31 2 31 C1.9906543 30.32420898 1.98130859 29.64841797 1.97167969 28.95214844 C1.91792699 25.8840289 1.83429008 22.81742613 1.75 19.75 C1.73582031 18.68652344 1.72164062 17.62304688 1.70703125 16.52734375 C1.67480469 15.50253906 1.64257812 14.47773437 1.609375 13.421875 C1.58842773 12.47924805 1.56748047 11.53662109 1.54589844 10.56542969 C0.84335396 7.2638477 -0.36361937 6.05446082 -3 4 C-7.1777974 3.31636042 -9.15499439 3.42183826 -12.671875 5.828125 C-16.08409432 10.47698756 -15.78007872 14.68200445 -15.8125 20.3125 C-15.83763672 21.33923828 -15.86277344 22.36597656 -15.88867188 23.42382812 C-15.94741085 25.949604 -15.98378712 28.47365228 -16 31 C-17.32 31.33 -18.64 31.66 -20 32 C-20 21.77 -20 11.54 -20 1 C-18.68 1 -17.36 1 -16 1 C-16 1.99 -16 2.98 -16 4 C-14.824375 3.01 -14.824375 3.01 -13.625 2 C-9.38093474 -0.81257531 -4.91806112 -0.97541545 0 0 Z " fill="#06080F" transform="translate(733,1752)"/>
<path d="M0 0 C2.93423195 1.79646854 4.47205355 2.9441071 6 6 C6.08510205 7.9593604 6.10717656 9.92162794 6.09765625 11.8828125 C6.09443359 13.04941406 6.09121094 14.21601562 6.08789062 15.41796875 C6.07951172 16.64128906 6.07113281 17.86460938 6.0625 19.125 C6.05798828 20.35605469 6.05347656 21.58710937 6.04882812 22.85546875 C6.0370133 25.90369392 6.02054028 28.95182314 6 32 C5.01 32 4.02 32 3 32 C2.98018066 31.32420898 2.96036133 30.64841797 2.93994141 29.95214844 C2.84456762 26.88437956 2.73493835 23.81728002 2.625 20.75 C2.5940625 19.68652344 2.563125 18.62304688 2.53125 17.52734375 C2.49257813 16.50253906 2.45390625 15.47773437 2.4140625 14.421875 C2.36693115 13.00793457 2.36693115 13.00793457 2.31884766 11.56542969 C1.99000256 8.91956119 1.43362257 7.23664278 0 5 C-1.962583 4.11307914 -1.962583 4.11307914 -4.25 3.9375 C-4.99765625 3.82277344 -5.7453125 3.70804688 -6.515625 3.58984375 C-9.48979358 4.08086215 -11.53119858 5.12367183 -13.7734375 7.14819336 C-16.42931073 11.15790642 -15.88636003 16.16340636 -15.875 20.8125 C-15.895625 21.88693359 -15.91625 22.96136719 -15.9375 24.06835938 C-15.98451611 26.71301554 -16.0044491 29.3550121 -16 32 C-17.32 31.67 -18.64 31.34 -20 31 C-20 21.1 -20 11.2 -20 1 C-18.68 1 -17.36 1 -16 1 C-15.67 1.99 -15.34 2.98 -15 4 C-14.38125 3.34 -13.7625 2.68 -13.125 2 C-8.77162574 -0.78615952 -5.04552744 -0.84506371 0 0 Z " fill="#080A14" transform="translate(772,1752)"/>
<path d="M0 0 C3.88014936 1.52059907 5.73906562 3.86078531 8.25 7.125 C8.95640625 8.03507812 9.6628125 8.94515625 10.390625 9.8828125 C11.18726563 10.93082031 11.18726563 10.93082031 12 12 C15.34218454 8.79496774 17.91976812 5.41105324 20.53515625 1.609375 C21.01855469 1.07828125 21.50195312 0.5471875 22 0 C22.99 0 23.98 0 25 0 C24.2734434 5.06207469 20.65206587 8.40913908 17.51953125 12.24609375 C15.6822049 14.86833189 15.6822049 14.86833189 16.53515625 17.55859375 C18.57415299 20.95692165 21.00211686 23.88008261 23.5390625 26.9140625 C25 29 25 29 25 32 C21.94081645 31.67761967 21.03829611 31.04227024 18.9296875 28.71484375 C18.25164063 27.79832031 17.57359375 26.88179687 16.875 25.9375 C15.62686931 24.25841098 14.34423289 22.60318685 13 21 C12.34 21 11.68 21 11 21 C8.8685439 23.78763685 6.9367046 26.68622421 4.97265625 29.59375 C4.32167969 30.3878125 3.67070313 31.181875 3 32 C2.01 32 1.02 32 0 32 C0.5112012 27.49656089 2.17521358 25.12474574 5.0625 21.6875 C5.79597656 20.80449219 6.52945313 19.92148438 7.28515625 19.01171875 C8.13400391 18.01591797 8.13400391 18.01591797 9 17 C6.47585226 12.24295234 3.81713346 8.45698093 0.07421875 4.578125 C-0.28027344 4.05734375 -0.63476562 3.5365625 -1 3 C-0.67 2.01 -0.34 1.02 0 0 Z " fill="#06070E" transform="translate(926,1752)"/>
<path d="M0 0 C3.77986048 0.91365049 5.44573918 2.54248287 8.00390625 5.484375 C8.78588519 9.23787392 8.30260427 10.89996584 6.56640625 14.296875 C3.41873409 16.98391221 1.26103825 17.44078601 -2.8046875 17.6953125 C-6.14328457 17.37395022 -7.78217371 15.90585004 -9.99609375 13.484375 C-11.4404023 10.59575791 -11.37297881 8.68789799 -10.99609375 5.484375 C-7.98911946 1.16184946 -5.37143176 -0.36692892 0 0 Z " fill="#4F62BB" transform="translate(882.99609375,1763.515625)"/>
<path d="M0 0 C0.763125 0.495 1.52625 0.99 2.3125 1.5 C2.3125 2.49 2.3125 3.48 2.3125 4.5 C-2.5625 3.625 -2.5625 3.625 -3.6875 2.5 C-7.46853961 1.94279416 -11.16728241 1.65996224 -14.58203125 3.546875 C-17.37906044 5.8607191 -19.50632198 7.75790369 -19.890625 11.453125 C-19.99518804 16.57671416 -19.59426605 20.08602192 -16.6875 24.5 C-13.57763793 26.57324138 -12.79641613 26.77392186 -9.25 26.75 C-8.48816406 26.75515625 -7.72632813 26.7603125 -6.94140625 26.765625 C-4.46171096 26.47339055 -2.88701634 25.63814808 -0.6875 24.5 C0.3025 24.5 1.2925 24.5 2.3125 24.5 C2.25 26.3125 2.25 26.3125 1.3125 28.5 C-3.46358745 31.17460897 -7.14423054 32.10472031 -12.6875 31.5 C-18.10200013 29.48283328 -20.90066995 26.57696005 -23.76953125 21.63671875 C-25.47134481 17.67547613 -25.30678351 13.71491941 -24.6875 9.5 C-23.03898215 5.44682594 -20.73163849 2.48271858 -17.5625 -0.5 C-11.67191774 -2.54889818 -5.74241226 -2.33589651 0 0 Z " fill="#06080F" transform="translate(1268.6875,1753.5)"/>
<path d="M0 0 C0.33 0.99 0.66 1.98 1 3 C-1.64 3.33 -4.28 3.66 -7 4 C-7.33 7.3 -7.66 10.6 -8 14 C-5.36 14 -2.72 14 0 14 C-0.33 15.32 -0.66 16.64 -1 18 C-3.31 18 -5.62 18 -8 18 C-8 26.58 -8 35.16 -8 44 C-9.32 44 -10.64 44 -12 44 C-12 35.09 -12 26.18 -12 17 C-13.98 17 -15.96 17 -18 17 C-18 16.01 -18 15.02 -18 14 C-16.02 14 -14.04 14 -12 14 C-12.04640625 13.32453125 -12.0928125 12.6490625 -12.140625 11.953125 C-12.43184885 4.75573549 -12.43184885 4.75573549 -10.5 1.375 C-6.85379595 -0.63041222 -4.12814187 -0.27520946 0 0 Z " fill="#05060D" transform="translate(1077,1739)"/>
<path d="M0 0 C1.85253906 0.21337891 1.85253906 0.21337891 4 1 C5.28027344 2.99365234 5.28027344 2.99365234 6.359375 5.5859375 C6.75253906 6.51664063 7.14570312 7.44734375 7.55078125 8.40625 C7.94652344 9.3859375 8.34226562 10.365625 8.75 11.375 C9.36681641 12.83292969 9.36681641 12.83292969 9.99609375 14.3203125 C13 21.54565511 13 21.54565511 13 25 C13.66 25 14.32 25 15 25 C15.12979248 24.27006836 15.25958496 23.54013672 15.39331055 22.78808594 C16.34812868 18.40014908 18.10230685 14.39046762 19.8125 10.25 C20.15603516 9.37472656 20.49957031 8.49945312 20.85351562 7.59765625 C21.19705078 6.76621094 21.54058594 5.93476562 21.89453125 5.078125 C22.20237549 4.31918945 22.51021973 3.56025391 22.82739258 2.77832031 C24 1 24 1 26.1315918 0.24511719 C26.7481665 0.16422852 27.36474121 0.08333984 28 0 C27.34794344 4.01290529 26.0955448 7.44372879 24.49609375 11.17578125 C24.00302734 12.33271484 23.50996094 13.48964844 23.00195312 14.68164062 C22.48568359 15.87982422 21.96941406 17.07800781 21.4375 18.3125 C20.9116721 19.54213081 20.38627697 20.77194678 19.86132812 22.00195312 C18.57846336 25.00315052 17.29121552 28.00238815 16 31 C14.68 31 13.36 31 12 31 C10.28145512 27.23230364 8.57278025 23.46030375 6.87304688 19.68408203 C6.29369984 18.40064043 5.71169099 17.11839687 5.12695312 15.83740234 C4.2858995 13.99366405 3.45457885 12.14579948 2.625 10.296875 C2.12226562 9.18666992 1.61953125 8.07646484 1.1015625 6.93261719 C0 4 0 4 0 0 Z " fill="#05070D" transform="translate(830,1752)"/>
<path d="M0 0 C4.21796616 0.86080942 6.17690429 2.46458565 9.0625 5.625 C9.85768932 9.44190873 9.38655186 11.04170665 7.5 14.4375 C4.29253157 17.31599731 2.3475666 17.70017661 -1.9375 17.625 C-4.73939446 15.85858828 -6.45274911 14.59450178 -7.9375 11.625 C-8.47785146 7.57236402 -8.27949395 6.08769769 -5.8125 2.75 C-2.9375 0.625 -2.9375 0.625 0 0 Z " fill="#4D60B8" transform="translate(880.9375,1743.375)"/>
<path d="M0 0 C3.49406769 1.66762322 4.82670681 2.74006022 7 6 C7 7.32 7 8.64 7 10 C0.07 10 -6.86 10 -14 10 C-12 4 -12 4 -9.25 1.625 C-5.69346078 -0.15326961 -3.90874297 -0.58215321 0 0 Z " fill="#4B5EB3" transform="translate(1103,1755)"/>
<path d="M0 0 C3.3125 1.625 3.3125 1.625 6 4 C6.33 5.98 6.66 7.96 7 10 C0.4 10 -6.2 10 -13 10 C-12 5 -12 5 -9.3125 2.1875 C-5.63715683 -0.23961341 -4.28609173 -0.8036422 0 0 Z " fill="#4C5FB5" transform="translate(1297,1755)"/>
<path d="M0 0 C4.73528366 -0.54339321 6.8954031 -0.70506185 10.9375 1.875 C14.22882245 5.2660595 14.1201353 7.25212828 14.09765625 11.8828125 C14.09443359 13.04941406 14.09121094 14.21601562 14.08789062 15.41796875 C14.07951172 16.64128906 14.07113281 17.86460938 14.0625 19.125 C14.05798828 20.35605469 14.05347656 21.58710937 14.04882812 22.85546875 C14.0370133 25.90369392 14.02054028 28.95182314 14 32 C13.01 32 12.02 32 11 32 C10.98018066 31.32420898 10.96036133 30.64841797 10.93994141 29.95214844 C10.84456762 26.88437956 10.73493835 23.81728002 10.625 20.75 C10.5940625 19.68652344 10.563125 18.62304688 10.53125 17.52734375 C10.47324219 15.99013672 10.47324219 15.99013672 10.4140625 14.421875 C10.3826416 13.47924805 10.3512207 12.53662109 10.31884766 11.56542969 C9.98893474 8.9109696 9.46264181 7.23084673 8 5 C5.59595262 4.08400573 5.59595262 4.08400573 2.875 3.75 C1.96492187 3.60046875 1.05484375 3.4509375 0.1171875 3.296875 C-0.58148437 3.19890625 -1.28015625 3.1009375 -2 3 C-1.34 2.01 -0.68 1.02 0 0 Z " fill="#010204" transform="translate(764,1752)"/>
<path d="M0 0 C0.99 0 1.98 0 3 0 C3 14.19 3 28.38 3 43 C2.01 43 1.02 43 0 43 C0 28.81 0 14.62 0 0 Z " fill="#000001" transform="translate(695,1741)"/>
</svg>
