<svg class="border shadow-md dark:border-slate-700" viewBox="0 0 337.095 599.28" xmlns="http://www.w3.org/2000/svg" preserveAspectRatio="none" style="width: 337.095px; height: 599.28px;"><rect class="bg" id="bg" x="0" y="0" width="337.095" height="599.28" fill="#1c434e"/><g transform="rotate(0 168.5475 299.64)"><path id="-1" d="M -268.55 -29.93 S -198.00 -59.89&#10;            0.00 -29.93 21.55 -59.89&#10;            268.55 -29.93 392.82 -65.93&#10;            537.10 -29.93 581.64 -83.93&#10;            805.64 -29.93 h 110 V 799.28 H -268.55 Z" fill="#2D6C96"/><path id="0" d="M -268.55 30.00 S -144.27 -20.00&#10;            0.00 30.00 71.55 0.04&#10;            268.55 30.00 392.10 -14.00&#10;            537.10 30.00 661.37 -29.00&#10;            805.64 30.00 h 110 V 799.28 H -268.55 Z" fill="#29638a"/><path id="1" d="M -268.55 89.93 S -211.00 58.93&#10;            0.00 89.93 124.27 59.96&#10;            268.55 89.93 392.82 59.96&#10;            537.10 89.93 661.37 59.96&#10;            805.64 89.93 h 110 V 799.28 H -268.55 Z" fill="#255a7e"/><path id="2" d="M -268.55 149.86 S -177.00 119.89&#10;            0.00 149.86 48.55 105.86&#10;            268.55 149.86 392.82 119.89&#10;            537.10 149.86 577.64 112.86&#10;            805.64 149.86 h 110 V 799.28 H -268.55 Z" fill="#215172"/><path id="3" d="M -268.55 209.78 S -209.00 179.82&#10;            0.00 209.78 124.27 179.78&#10;            268.55 209.78 391.10 178.78&#10;            537.10 209.78 661.37 163.78&#10;            805.64 209.78 h 110 V 799.28 H -268.55 Z" fill="#1d4866"/><path id="4" d="M -268.55 269.71 S -193.00 233.71&#10;            0.00 269.71 124.27 231.71&#10;            268.55 269.71 334.10 239.75&#10;            537.10 269.71 612.64 217.71&#10;            805.64 269.71 h 110 V 799.28 H -268.55 Z" fill="#193f5a"/><path id="5" d="M -268.55 329.64 S -144.27 295.64&#10;            0.00 329.64 102.55 299.68&#10;            268.55 329.64 308.10 272.64&#10;            537.10 329.64 661.37 299.68&#10;            805.64 329.64 h 110 V 799.28 H -268.55 Z" fill="#15364e"/><path id="6" d="M -268.55 389.57 S -207.00 356.57&#10;            0.00 389.57 67.55 359.60&#10;            268.55 389.57 392.82 359.60&#10;            537.10 389.57 661.37 333.57&#10;            805.64 389.57 h 110 V 799.28 H -268.55 Z" fill="#112d42"/><path id="7" d="M -268.55 449.50 S -144.27 417.50&#10;            0.00 449.50 40.55 419.53&#10;            268.55 449.50 392.82 419.53&#10;            537.10 449.50 661.37 419.53&#10;            805.64 449.50 h 110 V 799.28 H -268.55 Z" fill="#0d2436"/><path id="8" d="M -268.55 509.42 S -144.27 479.46&#10;            0.00 509.42 56.55 479.46&#10;            268.55 509.42 392.82 479.46&#10;            537.10 509.42 620.64 479.46&#10;            805.64 509.42 h 110 V 799.28 H -268.55 Z" fill="#091b2a"/><path id="9" d="M -268.55 569.35 S -144.27 515.35&#10;            0.00 569.35 124.27 532.35&#10;            268.55 569.35 375.10 539.39&#10;            537.10 569.35 661.37 520.35&#10;            805.64 569.35 h 110 V 799.28 H -268.55 Z" fill="#05121e"/></g></svg>